<?xml version="1.0" encoding="utf-8"?>
<!-- Generator: Adobe Illustrator 17.0.0, SVG Export Plug-In . SVG Version: 6.00 Build 0)  -->
<!DOCTYPE svg PUBLIC "-//W3C//DTD SVG 1.1//EN" "http://www.w3.org/Graphics/SVG/1.1/DTD/svg11.dtd">
<svg version="1.1" id="Layer_1" xmlns="http://www.w3.org/2000/svg" xmlns:xlink="http://www.w3.org/1999/xlink" x="0px" y="0px"
	 width="396px" height="792px" viewBox="0 0 396 792" enable-background="new 0 0 396 792" xml:space="preserve">
<rect x="18" y="18" fill="#F1F2F2" width="9" height="9"/>
<rect x="342" y="207" fill="#F1F2F2" width="9" height="9"/>
<rect x="360" y="225" fill="#F1F2F2" width="9" height="9"/>
<rect x="45" y="396" fill="#F1F2F2" width="9" height="9"/>
<rect x="81" y="387" fill="#F1F2F2" width="9" height="9"/>
<rect x="135" y="279" fill="#F1F2F2" width="9" height="9"/>
<rect x="324" y="630" fill="#F1F2F2" width="9" height="9"/>
<rect x="315" y="639" fill="#F1F2F2" width="9" height="9"/>
<rect x="81" y="702" fill="#F1F2F2" width="9" height="9"/>
<rect x="72" y="684" fill="#F1F2F2" width="9" height="9"/>
<rect x="117" y="549" fill="#F1F2F2" width="9" height="9"/>
<rect x="378" y="495" fill="#F1F2F2" width="9" height="9"/>
<rect y="135" fill="#F1F2F2" width="9" height="9"/>
<rect x="378" y="108" fill="#F1F2F2" width="9" height="9"/>
<rect x="342" y="693" fill="#F1F2F2" width="9" height="9"/>
</svg>
